# xmcd
#
# Track frame offsets:
#  150
#  20794
#  37479
#  52526
#  91856
#  114563
#  133130
#  157560
#  184938
#  215379
#  238813
#  248806
#  266235
#  284871
#
# Disc length: 3967 seconds
#
# Revision: 0
# Processed by: cddbd v1.5.1PL2 Copyright (c) Steve Scherf et al.
# Submitted via: Collectorz.com_Music_Collector 6.9
#
DISCID=cf0f7d0e
DTITLE=Crowsong - Western
DYEAR=2002
DGENRE=
TTITLE0=My Girl
TTITLE1=Separate Ways
TTITLE2=Thirty More Years
TTITLE3=Drive
TTITLE4=Two Manhattans
TTITLE5=Wishes in a Well
TTITLE6=Fall in the Sea
TTITLE7=Badlands
TTITLE8=Red is the Color of Blood
TTITLE9=Old Rt. 13
TTITLE10=Fearless
TTITLE11=Songs About Horses
TTITLE12=Desert Song
TTITLE13=Endless Shore
EXTD=
EXTT0=
EXTT1=
EXTT2=
EXTT3=
EXTT4=
EXTT5=
EXTT6=
EXTT7=
EXTT8=
EXTT9=
EXTT10=
EXTT11=
EXTT12=
EXTT13=
PLAYORDER=
